<svg width="280" height="280" viewBox="0 0 280 280" fill="none" xmlns="http://www.w3.org/2000/svg">
<rect width="280" height="280" fill="#071643"/>
<g opacity="0.1">
<path d="M184.9 129.826C184.244 128.373 183.512 126.954 182.71 125.575L172.373 153.654C171.979 154.703 171.406 155.676 170.679 156.529C173.453 156.254 176.127 155.342 178.491 153.864C180.856 152.387 182.847 150.383 184.309 148.009C185.772 145.635 186.666 142.955 186.923 140.179C187.18 137.402 186.792 134.604 185.789 132.003C185.514 131.262 185.218 130.541 184.9 129.826Z" fill="white"/>
<path d="M125.572 104.52C119.541 106.667 114.004 110.009 109.294 114.346C104.585 118.683 100.798 123.926 98.1623 129.76C95.5262 135.594 94.0944 141.901 93.9526 148.301C93.8108 154.702 94.962 161.066 97.3372 167.011C97.3999 167.139 97.4424 167.264 97.5052 167.392C98.767 170.405 100.821 173.02 103.45 174.96C106.079 176.9 109.184 178.091 112.436 178.408C115.687 178.725 118.964 178.155 121.918 176.76C124.872 175.364 127.392 173.194 129.212 170.481C133.018 164.747 138.482 160.311 144.875 157.763C145.078 157.682 145.28 157.622 145.482 157.547C146.202 155.886 147.273 154.402 148.622 153.195C149.971 151.988 151.565 151.088 153.295 150.556C153.253 149.032 153.565 147.518 154.208 146.135L170.201 111.503C163.919 106.741 156.554 103.61 148.766 102.392C140.977 101.173 133.008 101.905 125.572 104.52ZM113.162 157.358C111.561 157.358 109.995 156.884 108.663 155.994C107.332 155.104 106.294 153.839 105.681 152.36C105.068 150.88 104.908 149.252 105.22 147.681C105.533 146.11 106.304 144.667 107.436 143.535C108.569 142.402 110.012 141.631 111.582 141.319C113.153 141.006 114.781 141.166 116.261 141.779C117.741 142.392 119.005 143.43 119.895 144.762C120.785 146.093 121.26 147.659 121.26 149.261C121.26 151.408 120.407 153.468 118.888 154.987C117.37 156.505 115.31 157.358 113.162 157.358ZM123.284 134.077C121.683 134.077 120.117 133.602 118.786 132.713C117.454 131.823 116.416 130.558 115.803 129.078C115.19 127.599 115.03 125.971 115.342 124.4C115.655 122.829 116.426 121.386 117.558 120.254C118.691 119.121 120.134 118.35 121.705 118.037C123.275 117.725 124.904 117.885 126.383 118.498C127.863 119.111 129.128 120.149 130.018 121.481C130.907 122.812 131.382 124.378 131.382 125.98C131.382 128.127 130.529 130.187 129.01 131.706C127.492 133.224 125.432 134.077 123.284 134.077ZM147.578 126.992C145.976 126.992 144.411 126.517 143.079 125.627C141.747 124.737 140.709 123.473 140.096 121.993C139.484 120.513 139.323 118.885 139.636 117.314C139.948 115.743 140.719 114.301 141.852 113.168C142.984 112.036 144.427 111.264 145.998 110.952C147.569 110.639 149.197 110.8 150.677 111.413C152.156 112.026 153.421 113.063 154.311 114.395C155.201 115.727 155.676 117.292 155.676 118.894C155.676 121.042 154.822 123.101 153.304 124.62C151.785 126.139 149.725 126.992 147.578 126.992Z" fill="white"/>
<path d="M183.973 99.9676C183.075 99.5946 182.067 99.5839 181.161 99.938C180.255 100.292 179.522 100.983 179.115 101.867L157.89 147.832C157.402 148.889 157.244 150.069 157.437 151.218C157.63 152.367 158.166 153.43 158.973 154.269C157 153.807 154.927 154.06 153.123 154.983C151.32 155.907 149.902 157.441 149.125 159.312C145.847 167.228 151.032 170.7 147.752 178.615C151.491 178.198 155.052 176.798 158.075 174.557C161.097 172.317 163.473 169.317 164.96 165.861C165.66 164.16 165.792 162.277 165.336 160.495C164.88 158.712 163.86 157.124 162.429 155.968C163.724 156.135 165.036 155.858 166.153 155.182C167.27 154.507 168.124 153.473 168.577 152.249L186.069 104.733C186.401 103.822 186.368 102.818 185.978 101.93C185.587 101.042 184.869 100.339 183.973 99.9676Z" fill="white"/>
</g>
</svg>
